<svg width="24" height="22" viewBox="0 0 24 22" fill="none" xmlns="http://www.w3.org/2000/svg" xmlns:xlink="http://www.w3.org/1999/xlink">
<path d="M14.25,11C14.25,13.899 11.899,16.25 9,16.25L9,20.25C14.109,20.25 18.25,16.109 18.25,11L14.25,11ZM9,16.25C6.101,16.25 3.75,13.899 3.75,11L-0.25,11C-0.25,16.109 3.891,20.25 9,20.25L9,16.25ZM3.75,11C3.75,8.101 6.101,5.75 9,5.75L9,1.75C3.891,1.75 -0.25,5.891 -0.25,11L3.75,11ZM9,5.75C11.899,5.75 14.25,8.101 14.25,11L18.25,11C18.25,5.891 14.109,1.75 9,1.75L9,5.75Z" fill="#FFFFFF"/>
<line x1="17.875" y1="0.125" x2="17.875" y2="0.127" stroke="#FFFFFF" stroke-width="2" stroke-miterlimit="3.999327" stroke-linecap="round" stroke-linejoin="round"/>
</svg>
