<svg width="58" height="44" viewBox="0 0 58 44" fill="none" xmlns="http://www.w3.org/2000/svg" xmlns:xlink="http://www.w3.org/1999/xlink">
<path d="M57.619,8.855C57.619,3.757 53.869,-0.343 49.236,-0.343C42.96,-0.637 36.56,-0.75 30.019,-0.75L27.98,-0.75C21.455,-0.75 15.043,-0.637 8.768,-0.342C4.146,-0.342 0.396,3.781 0.396,8.879C0.113,12.911 -0.007,16.943 0,20.976C-0.012,25.009 0.117,29.046 0.385,33.086C0.385,38.184 4.134,42.318 8.756,42.318C15.349,42.624 22.112,42.76 28.988,42.749C35.876,42.772 42.62,42.628 49.22,42.318C53.853,42.318 57.603,38.184 57.603,33.086C57.875,29.042 57.999,25.009 57.988,20.965C58.014,16.932 57.891,12.895 57.619,8.855ZM23.449,32.089L23.449,9.829L39.874,20.954L23.449,32.089Z" fill="#FFFFFF"/>
</svg>
