<svg width="52" height="52" viewBox="0 0 52 52" fill="none" xmlns="http://www.w3.org/2000/svg" xmlns:xlink="http://www.w3.org/1999/xlink">
<path d="M50.375,25.153C50.375,11.14 39.013,-0.222 25,-0.222C10.987,-0.222 -0.375,11.14 -0.375,25.153C-0.375,37.818 8.903,48.315 21.035,50.221L21.035,32.49L14.591,32.49L14.591,25.153L21.035,25.153L21.035,19.562C21.035,13.204 24.824,9.689 30.62,9.689C33.396,9.689 36.301,10.185 36.301,10.185L36.301,16.43L33.1,16.43C29.949,16.43 28.964,18.385 28.964,20.395L28.964,25.153L36.001,25.153L34.877,32.49L28.965,32.49L28.965,50.223C41.097,48.319 50.375,37.821 50.375,25.153Z" clip-rule="evenodd" fill-rule="evenodd" fill="#FEFBFD"/>
</svg>
