<svg width="44" height="44" viewBox="0 0 44 44" fill="none" xmlns="http://www.w3.org/2000/svg" xmlns:xlink="http://www.w3.org/1999/xlink">
<path d="M11.333,3.667L30.667,3.667L30.667,-0.333L11.333,-0.333L11.333,3.667ZM30.667,3.667C34.901,3.667 38.333,7.099 38.333,11.333L42.333,11.333C42.333,4.89 37.11,-0.333 30.667,-0.333L30.667,3.667ZM38.333,11.333L38.333,30.667L42.333,30.667L42.333,11.333L38.333,11.333ZM38.333,30.667C38.333,34.901 34.901,38.333 30.667,38.333L30.667,42.333C37.11,42.333 42.333,37.11 42.333,30.667L38.333,30.667ZM30.667,38.333L11.333,38.333L11.333,42.333L30.667,42.333L30.667,38.333ZM11.333,38.333C7.099,38.333 3.667,34.901 3.667,30.667L-0.333,30.667C-0.333,37.11 4.89,42.333 11.333,42.333L11.333,38.333ZM3.667,30.667L3.667,11.333L-0.333,11.333L-0.333,30.667L3.667,30.667ZM3.667,11.333C3.667,7.099 7.099,3.667 11.333,3.667L11.333,-0.333C4.89,-0.333 -0.333,4.89 -0.333,11.333L3.667,11.333Z" fill="#FFFFFF"/>
</svg>
