<svg width="54" height="44" viewBox="0 0 54 44" fill="none" xmlns="http://www.w3.org/2000/svg" xmlns:xlink="http://www.w3.org/1999/xlink">
<path d="M51.167,1.691L52.047,3.487C52.732,3.151 53.167,2.454 53.167,1.691L51.167,1.691ZM43.917,4.083L42.42,5.41C42.935,5.991 43.739,6.221 44.483,6.002L43.917,4.083ZM27,11.333L29,11.333L29,11.306L27,11.333ZM27,13.75L27.051,15.749C28.135,15.722 29,14.835 29,13.75L27,13.75ZM7.667,4.083L9.293,2.919C8.895,2.363 8.241,2.049 7.558,2.086C6.875,2.124 6.259,2.507 5.924,3.103L7.667,4.083ZM17.333,30.667L18.442,32.331C19.051,31.925 19.39,31.219 19.326,30.49C19.261,29.761 18.803,29.126 18.133,28.833L17.333,30.667ZM2.833,35.5L2.911,33.502C1.983,33.465 1.152,34.073 0.905,34.969C0.658,35.864 1.061,36.812 1.876,37.256L2.833,35.5ZM27.082,39.166L27.64,41.087L27.64,41.087L27.082,39.166ZM45.572,20.456L47.498,20.997L47.5,20.988L45.572,20.456ZM46.773,11.387L48.773,11.375L48.773,11.37L46.773,11.387ZM51.167,1.688L53.167,1.688C53.167,0.678 52.413,-0.174 51.409,-0.297C50.406,-0.419 49.469,0.226 49.226,1.207L51.167,1.688ZM50.287,-0.105C48.072,0.98 46.015,1.379 43.351,2.165L44.483,6.002C46.749,5.333 49.428,4.77 52.047,3.487L50.287,-0.105ZM45.414,2.757C41.937,-1.166 36.903,-1.17 32.63,0.429L34.033,4.175C37.48,2.885 40.478,3.219 42.42,5.41L45.414,2.757ZM32.63,0.429C28.026,2.153 24.932,6.416 25,11.361L29,11.306C28.957,8.145 30.919,5.342 34.033,4.175L32.63,0.429ZM25,11.333L25,13.75L29,13.75L29,11.333L25,11.333ZM26.949,11.751C19.782,11.934 13.421,8.685 9.293,2.919L6.04,5.248C10.926,12.072 18.534,15.967 27.051,15.749L26.949,11.751ZM7.667,4.083C5.924,3.103 5.923,3.104 5.922,3.105C5.922,3.105 5.922,3.106 5.921,3.107C5.92,3.109 5.919,3.111 5.918,3.113C5.915,3.118 5.912,3.123 5.908,3.13C5.901,3.144 5.891,3.162 5.879,3.184C5.855,3.228 5.822,3.29 5.782,3.368C5.701,3.523 5.59,3.745 5.46,4.024C5.198,4.583 4.854,5.381 4.509,6.362C3.824,8.314 3.115,11.053 3.085,14.123C3.055,17.207 3.711,20.659 5.791,23.946C7.874,27.237 11.292,30.215 16.534,32.5L18.133,28.833C13.488,26.809 10.754,24.308 9.171,21.807C7.585,19.301 7.06,16.646 7.085,14.162C7.11,11.663 7.692,9.373 8.284,7.687C8.577,6.85 8.869,6.177 9.082,5.72C9.189,5.492 9.276,5.318 9.334,5.207C9.363,5.151 9.385,5.11 9.398,5.086C9.404,5.074 9.408,5.066 9.411,5.063C9.412,5.061 9.412,5.06 9.412,5.06C9.412,5.06 9.412,5.061 9.411,5.061C9.411,5.062 9.411,5.062 9.411,5.062C9.41,5.063 9.41,5.064 7.667,4.083ZM16.225,29.002C11.864,31.907 7.775,33.691 2.911,33.502L2.756,37.499C8.82,37.735 13.755,35.454 18.442,32.331L16.225,29.002ZM1.876,37.256C10.208,41.797 19.467,43.459 27.64,41.087L26.525,37.245C19.612,39.252 11.448,37.917 3.79,33.744L1.876,37.256ZM27.64,41.087C36.919,38.391 44.572,31.411 47.498,20.997L43.647,19.915C41.115,28.927 34.549,34.914 26.524,37.246L27.64,41.087ZM47.5,20.988C48.363,17.857 48.791,14.623 48.773,11.375L44.773,11.398C44.789,14.278 44.409,17.148 43.644,19.925L47.5,20.988ZM48.773,11.37C48.775,11.578 48.741,11.727 48.732,11.766C48.724,11.797 48.718,11.819 48.714,11.832C48.71,11.845 48.708,11.853 48.707,11.855C48.706,11.858 48.709,11.848 48.72,11.823C48.729,11.799 48.743,11.766 48.762,11.723C48.841,11.544 48.966,11.283 49.14,10.938C49.497,10.227 49.944,9.378 50.471,8.344C51.45,6.424 52.67,3.935 53.108,2.17L49.226,1.207C48.919,2.441 47.94,4.501 46.907,6.529C46.428,7.469 45.916,8.445 45.566,9.141C45.386,9.498 45.221,9.836 45.098,10.117C45.038,10.256 44.973,10.412 44.92,10.567C44.892,10.649 44.77,10.993 44.773,11.403L48.773,11.37ZM49.167,1.688L49.167,1.691L53.167,1.691L53.167,1.688L49.167,1.688Z" fill="#FFFFFF"/>
</svg>
